<svg version="1.1" id="Layer_1" xmlns="http://www.w3.org/2000/svg" xmlns:xlink="http://www.w3.org/1999/xlink" x="0px" y="0px" viewBox="0 0 489.1 489.1" style="enable-background:new 0 0 489.1 489.1;" xml:space="preserve">
                    <g>
                    	<g>
                    		<polygon points="296,176.95 223.5,249.05 193.2,218.55 161.5,250.05 191.8,280.55 223.3,312.15 255,280.65 327.5,208.55 		"></polygon>
                    	</g>
                    </g>
                    <g>
                    	<g>
                    		<path style="fill:#85BD3C;" d="M472.9,206.45h-36.6c-5.1-25.7-15.2-49.6-29.3-70.6l25.9-25.9c6.3-6.3,6.3-16.5,0-22.8l-31.1-31.1
                    			c-6.3-6.3-16.5-6.3-22.8,0l-25.9,25.9c-21-14.1-44.9-24.2-70.6-29.3v-36.5c0-8.9-7.2-16.1-16.1-16.1h-43.9
                    			c-8.9,0-16.1,7.2-16.1,16.1v36.6c-25.7,5.1-49.6,15.2-70.6,29.3l-25.9-25.9c-6.3-6.3-16.5-6.3-22.8,0l-31.1,31
                    			c-6.3,6.3-6.3,16.5,0,22.8l25.9,25.9c-14.1,21-24.2,44.9-29.3,70.6H16.1c-8.9,0-16.1,7.2-16.1,16.1v44c0,8.9,7.2,16.1,16.1,16.1
                    			h36.6c5.1,25.7,15.2,49.6,29.3,70.6l-25.9,25.8c-6.3,6.3-6.3,16.5,0,22.8l31.1,31.1c6.3,6.3,16.5,6.3,22.8,0l25.9-25.9
                    			c21,14.1,44.9,24.2,70.6,29.3v36.6c0,8.9,7.2,16.1,16.1,16.1h43.9c8.9,0,16.1-7.2,16.1-16.1v-36.6c25.7-5.1,49.6-15.2,70.6-29.3
                    			l25.9,25.9c6.3,6.3,16.5,6.3,22.8,0l31.1-31.1c6.3-6.3,6.3-16.5,0-22.8l-25.9-25.8c14.1-21,24.2-44.9,29.3-70.6H473
                    			c8.9,0,16.1-7.2,16.1-16.1v-44C489,213.65,481.8,206.45,472.9,206.45z M244.5,372.75c-70.8,0-128.2-57.4-128.2-128.2
                    			s57.4-128.2,128.2-128.2s128.2,57.4,128.2,128.2S315.3,372.75,244.5,372.75z"></path>
                    	</g>
                    </g>
                    </svg>
